<svg width="17" height="17" viewBox="0 0 17 17" fill="none" xmlns="http://www.w3.org/2000/svg">
<g clip-path="url(#clip0_0_38)">
<path d="M2.17467 9.03201C2.11911 8.88234 2.11911 8.71769 2.17467 8.56801C2.7158 7.25592 3.63434 6.13404 4.81385 5.34461C5.99335 4.55519 7.3807 4.13376 8.8 4.13376C10.2193 4.13376 11.6066 4.55519 12.7862 5.34461C13.9657 6.13404 14.8842 7.25592 15.4253 8.56801C15.4809 8.71769 15.4809 8.88234 15.4253 9.03201C14.8842 10.3441 13.9657 11.466 12.7862 12.2554C11.6066 13.0448 10.2193 13.4663 8.8 13.4663C7.3807 13.4663 5.99335 13.0448 4.81385 12.2554C3.63434 11.466 2.7158 10.3441 2.17467 9.03201Z" stroke="#A1A1A1" stroke-width="1.33333" stroke-linecap="round" stroke-linejoin="round"/>
<path d="M8.79999 10.8C9.90456 10.8 10.8 9.90459 10.8 8.80002C10.8 7.69545 9.90456 6.80002 8.79999 6.80002C7.69542 6.80002 6.79999 7.69545 6.79999 8.80002C6.79999 9.90459 7.69542 10.8 8.79999 10.8Z" stroke="#A1A1A1" stroke-width="1.33333" stroke-linecap="round" stroke-linejoin="round"/>
</g>
<defs>
<clipPath id="clip0_0_38">
<rect width="16" height="16" fill="white" transform="translate(0.799988 0.800018)"/>
</clipPath>
</defs>
</svg>
