<svg width="21" height="21" viewBox="0 0 21 21" fill="none" xmlns="http://www.w3.org/2000/svg">
<path d="M10.4625 19.1333C15.0649 19.1333 18.7958 15.4024 18.7958 10.8C18.7958 6.19763 15.0649 2.46667 10.4625 2.46667C5.86011 2.46667 2.12915 6.19763 2.12915 10.8C2.12915 15.4024 5.86011 19.1333 10.4625 19.1333Z" stroke="#FAFAFA" stroke-width="1.66667" stroke-linecap="round" stroke-linejoin="round"/>
<path d="M10.4625 15.8C13.2239 15.8 15.4625 13.5615 15.4625 10.8C15.4625 8.03863 13.2239 5.80005 10.4625 5.80005C7.70107 5.80005 5.46249 8.03863 5.46249 10.8C5.46249 13.5615 7.70107 15.8 10.4625 15.8Z" stroke="#FAFAFA" stroke-width="1.66667" stroke-linecap="round" stroke-linejoin="round"/>
<path d="M10.4625 12.4668C11.383 12.4668 12.1292 11.7206 12.1292 10.8001C12.1292 9.87961 11.383 9.13342 10.4625 9.13342C9.54203 9.13342 8.79584 9.87961 8.79584 10.8001C8.79584 11.7206 9.54203 12.4668 10.4625 12.4668Z" stroke="#FAFAFA" stroke-width="1.66667" stroke-linecap="round" stroke-linejoin="round"/>
</svg>
