<svg width="41" height="41" viewBox="0 0 41 41" fill="none" xmlns="http://www.w3.org/2000/svg">
<path d="M0.700012 10.8C0.700012 5.27716 5.17717 0.800003 10.7 0.800003H30.7C36.2229 0.800003 40.7 5.27716 40.7 10.8V30.8C40.7 36.3228 36.2229 40.8 30.7 40.8H10.7C5.17717 40.8 0.700012 36.3228 0.700012 30.8V10.8Z" fill="#FAFAFA"/>
<path d="M26.296 21.568C26.6712 21.9432 27.18 22.1539 27.7105 22.1539C28.241 22.1539 28.7499 21.9432 29.125 21.568C29.5002 21.1929 29.7109 20.684 29.7109 20.1535C29.7109 19.623 29.5002 19.1142 29.125 18.739L27.357 16.972C27.7322 17.347 28.2409 17.5576 28.7714 17.5576C29.034 17.5575 29.2941 17.5057 29.5367 17.4052C29.7794 17.3046 29.9998 17.1573 30.1855 16.9715C30.3712 16.7857 30.5185 16.5652 30.6189 16.3226C30.7194 16.0799 30.7711 15.8198 30.7711 15.5571C30.771 15.2945 30.7192 15.0344 30.6187 14.7918C30.5181 14.5491 30.3708 14.3287 30.185 14.143L27.357 11.315C26.982 10.9399 26.4733 10.729 25.9429 10.729C25.4124 10.7289 24.9037 10.9395 24.5285 11.3145C24.1534 11.6895 23.9425 12.1982 23.9425 12.7286C23.9424 13.2591 24.153 13.7679 24.528 14.143L22.761 12.375C22.5752 12.1892 22.3547 12.0419 22.112 11.9414C21.8693 11.8408 21.6092 11.7891 21.3465 11.7891C21.0838 11.7891 20.8237 11.8408 20.581 11.9414C20.3383 12.0419 20.1178 12.1892 19.932 12.375C19.7463 12.5608 19.5989 12.7813 19.4984 13.024C19.3978 13.2667 19.3461 13.5268 19.3461 13.7895C19.3461 14.0522 19.3978 14.3123 19.4984 14.555C19.5989 14.7977 19.7463 15.0182 19.932 15.204L26.296 21.568Z" stroke="#171717" stroke-width="2" stroke-linecap="round" stroke-linejoin="round"/>
<path d="M11.2 30.3L12.6 28.9" stroke="#171717" stroke-width="2" stroke-linecap="round" stroke-linejoin="round"/>
<path d="M28.8 12.7L30.2 11.3" stroke="#171717" stroke-width="2" stroke-linecap="round" stroke-linejoin="round"/>
<path d="M14.043 30.285C14.418 30.6602 14.9267 30.871 15.4572 30.8711C15.7198 30.8711 15.9799 30.8194 16.2226 30.7189C16.4653 30.6185 16.6858 30.4712 16.8715 30.2855C17.0573 30.0998 17.2046 29.8794 17.3052 29.6367C17.4057 29.3941 17.4575 29.134 17.4576 28.8714C17.4576 28.6087 17.4059 28.3486 17.3055 28.1059C17.205 27.8633 17.0577 27.6428 16.872 27.457L18.639 29.225C19.0142 29.6002 19.523 29.8109 20.0535 29.8109C20.5841 29.8109 21.0929 29.6002 21.468 29.225C21.8432 28.8499 22.0539 28.341 22.0539 27.8105C22.0539 27.28 21.8432 26.7712 21.468 26.396L15.104 20.032C14.9183 19.8462 14.6977 19.6989 14.455 19.5984C14.2123 19.4978 13.9522 19.4461 13.6895 19.4461C13.4268 19.4461 13.1667 19.4978 12.924 19.5984C12.6813 19.6989 12.4608 19.8462 12.275 20.032C12.0893 20.2178 11.9419 20.4383 11.8414 20.681C11.7409 20.9237 11.6891 21.1838 11.6891 21.4465C11.6891 21.7092 11.7409 21.9693 11.8414 22.212C11.9419 22.4547 12.0893 22.6752 12.275 22.861L14.043 24.628C13.6679 24.253 13.1591 24.0424 12.6287 24.0425C12.0982 24.0425 11.5895 24.2534 11.2145 24.6285C10.8395 25.0037 10.6289 25.5124 10.629 26.0429C10.6291 26.5733 10.8399 27.082 11.215 27.457L14.043 30.285Z" stroke="#171717" stroke-width="2" stroke-linecap="round" stroke-linejoin="round"/>
<path d="M18.3 23.2L23.1 18.4" stroke="#171717" stroke-width="2" stroke-linecap="round" stroke-linejoin="round"/>
</svg>
