<svg width="21" height="21" viewBox="0 0 21 21" fill="none" xmlns="http://www.w3.org/2000/svg">
<g clip-path="url(#clip0_5_70)">
<path d="M18.4584 10.8H16.3917C16.0275 10.7992 15.6731 10.9178 15.3826 11.1375C15.0922 11.3572 14.8817 11.666 14.7834 12.0167L12.825 18.9833C12.8124 19.0266 12.7861 19.0646 12.75 19.0917C12.714 19.1187 12.6701 19.1333 12.625 19.1333C12.5799 19.1333 12.5361 19.1187 12.5 19.0917C12.464 19.0646 12.4376 19.0266 12.425 18.9833L7.82502 2.61667C7.8124 2.5734 7.78608 2.53539 7.75002 2.50834C7.71396 2.4813 7.6701 2.46667 7.62502 2.46667C7.57994 2.46667 7.53608 2.4813 7.50002 2.50834C7.46396 2.53539 7.43764 2.5734 7.42502 2.61667L5.46669 9.58334C5.36874 9.93264 5.1595 10.2404 4.87074 10.46C4.58198 10.6796 4.22945 10.799 3.86669 10.8H1.79169" stroke="#FAFAFA" stroke-width="1.66667" stroke-linecap="round" stroke-linejoin="round"/>
</g>
<defs>
<clipPath id="clip0_5_70">
<rect width="20" height="20" fill="white" transform="translate(0.125 0.800049)"/>
</clipPath>
</defs>
</svg>
