<svg width="16" height="16" viewBox="0 0 16 16" fill="none" xmlns="http://www.w3.org/2000/svg">
<path d="M9.33125 2.66663C9.57178 2.66662 9.80783 2.73168 10.0144 2.85492C10.221 2.97815 10.3903 3.15496 10.5046 3.36663L10.8286 3.96663C10.9428 4.17829 11.1122 4.3551 11.3188 4.47834C11.5253 4.60157 11.7614 4.66663 12.0019 4.66663H13.3333C13.6869 4.66663 14.026 4.8071 14.2761 5.05715C14.5261 5.3072 14.6666 5.64634 14.6666 5.99996V12C14.6666 12.3536 14.5261 12.6927 14.2761 12.9428C14.026 13.1928 13.6869 13.3333 13.3333 13.3333H2.66659C2.31296 13.3333 1.97382 13.1928 1.72378 12.9428C1.47373 12.6927 1.33325 12.3536 1.33325 12V5.99996C1.33325 5.64634 1.47373 5.3072 1.72378 5.05715C1.97382 4.8071 2.31296 4.66663 2.66659 4.66663H3.99792C4.2382 4.66664 4.47402 4.60172 4.68044 4.47874C4.88686 4.35575 5.05621 4.17927 5.17059 3.96796L5.49658 3.36529C5.61096 3.15398 5.78031 2.9775 5.98673 2.85452C6.19315 2.73153 6.42897 2.66661 6.66925 2.66663H9.33125Z" stroke="#FAFAFA" stroke-width="1.33333" stroke-linecap="round" stroke-linejoin="round"/>
<path d="M8 10.6666C9.10457 10.6666 10 9.7712 10 8.66663C10 7.56206 9.10457 6.66663 8 6.66663C6.89543 6.66663 6 7.56206 6 8.66663C6 9.7712 6.89543 10.6666 8 10.6666Z" stroke="#FAFAFA" stroke-width="1.33333" stroke-linecap="round" stroke-linejoin="round"/>
</svg>
