<svg width="33" height="33" viewBox="0 0 33 33" fill="none" xmlns="http://www.w3.org/2000/svg">
<path d="M0.600098 10.8C0.600098 5.27714 5.07725 0.799988 10.6001 0.799988H22.6001C28.1229 0.799988 32.6001 5.27714 32.6001 10.8V22.8C32.6001 28.3228 28.1229 32.8 22.6001 32.8H10.6001C5.07725 32.8 0.600098 28.3228 0.600098 22.8V10.8Z" fill="#FAFAFA" fill-opacity="0.2"/>
<g clip-path="url(#clip0_41_1346)">
<path d="M20.3308 17.312C20.5809 17.5621 20.9201 17.7026 21.2738 17.7026C21.6275 17.7026 21.9667 17.5621 22.2168 17.312C22.4669 17.0619 22.6074 16.7227 22.6074 16.369C22.6074 16.0153 22.4669 15.6761 22.2168 15.426L21.0381 14.248C21.2882 14.498 21.6274 14.6384 21.981 14.6383C22.1561 14.6383 22.3295 14.6038 22.4913 14.5368C22.653 14.4697 22.8 14.3715 22.9238 14.2476C23.0476 14.1238 23.1458 13.9768 23.2127 13.815C23.2797 13.6532 23.3142 13.4798 23.3141 13.3047C23.3141 13.1296 23.2796 12.9563 23.2126 12.7945C23.1455 12.6327 23.0473 12.4858 22.9234 12.362L21.0381 10.4766C20.7881 10.2265 20.449 10.086 20.0953 10.0859C19.7417 10.0859 19.4025 10.2263 19.1524 10.4763C18.9023 10.7263 18.7618 11.0654 18.7617 11.4191C18.7617 11.7727 18.9021 12.1119 19.1521 12.362L17.9741 11.1833C17.8503 11.0595 17.7033 10.9612 17.5415 10.8942C17.3797 10.8272 17.2062 10.7927 17.0311 10.7927C16.856 10.7927 16.6826 10.8272 16.5208 10.8942C16.359 10.9612 16.2119 11.0595 16.0881 11.1833C15.9643 11.3071 15.866 11.4542 15.799 11.616C15.732 11.7778 15.6975 11.9512 15.6975 12.1263C15.6975 12.3014 15.732 12.4749 15.799 12.6367C15.866 12.7985 15.9643 12.9455 16.0881 13.0693L20.3308 17.312Z" stroke="#FAFAFA" stroke-width="1.33333" stroke-linecap="round" stroke-linejoin="round"/>
<path d="M10.2667 23.1333L11.2001 22.2" stroke="#FAFAFA" stroke-width="1.33333" stroke-linecap="round" stroke-linejoin="round"/>
<path d="M22.0001 11.4L22.9335 10.4667" stroke="#FAFAFA" stroke-width="1.33333" stroke-linecap="round" stroke-linejoin="round"/>
<path d="M12.1621 23.1233C12.4122 23.3734 12.7513 23.514 13.1049 23.514C13.28 23.5141 13.4534 23.4796 13.6152 23.4126C13.777 23.3457 13.924 23.2475 14.0478 23.1237C14.1716 22.9999 14.2699 22.8529 14.3369 22.6911C14.404 22.5294 14.4385 22.356 14.4385 22.1809C14.4385 22.0058 14.4041 21.8324 14.3371 21.6706C14.2701 21.5088 14.1719 21.3618 14.0481 21.238L15.2261 22.4167C15.4762 22.6668 15.8154 22.8073 16.1691 22.8073C16.5228 22.8073 16.862 22.6668 17.1121 22.4167C17.3622 22.1666 17.5027 21.8274 17.5027 21.4737C17.5027 21.12 17.3622 20.7808 17.1121 20.5307L12.8695 16.288C12.7456 16.1642 12.5986 16.0659 12.4368 15.9989C12.275 15.9319 12.1016 15.8974 11.9265 15.8974C11.7513 15.8974 11.5779 15.9319 11.4161 15.9989C11.2543 16.0659 11.1073 16.1642 10.9835 16.288C10.8596 16.4118 10.7614 16.5589 10.6944 16.7207C10.6274 16.8825 10.5929 17.0559 10.5929 17.231C10.5929 17.4061 10.6274 17.5796 10.6944 17.7414C10.7614 17.9032 10.8596 18.0502 10.9835 18.174L12.1621 19.352C11.912 19.102 11.5729 18.9616 11.2192 18.9616C10.8656 18.9617 10.5265 19.1022 10.2765 19.3523C10.0265 19.6024 9.88605 19.9416 9.88611 20.2952C9.88617 20.6489 10.0267 20.988 10.2768 21.238L12.1621 23.1233Z" stroke="#FAFAFA" stroke-width="1.33333" stroke-linecap="round" stroke-linejoin="round"/>
<path d="M15.0001 18.4L18.2001 15.2" stroke="#FAFAFA" stroke-width="1.33333" stroke-linecap="round" stroke-linejoin="round"/>
</g>
<defs>
<clipPath id="clip0_41_1346">
<rect width="16" height="16" fill="white" transform="translate(8.6001 8.79999)"/>
</clipPath>
</defs>
</svg>
