<svg version="1.1" id="Layer_1" xmlns="http://www.w3.org/2000/svg" xmlns:xlink="http://www.w3.org/1999/xlink" x="0px" y="0px"
	 width="100%" viewBox="0 0 469 374" enable-background="new 0 0 469 374" xml:space="preserve">
<path fill="#EF5D25" opacity="1.000000" stroke="none" 
	d="
M469.000000,375.000000 
	C313.050934,375.000000 157.101852,375.000000 1.076390,375.000000 
	C1.076390,250.425003 1.076390,125.849937 1.076390,1.000000 
	C156.690643,1.000000 312.381439,1.000000 468.536438,1.466042 
	C469.000427,126.288055 469.000214,250.644028 469.000000,375.000000 
M258.077057,296.418427 
	C258.416382,296.427582 258.714783,296.321533 259.582489,296.227570 
	C268.083435,292.498627 276.584351,288.769714 285.564270,284.914734 
	C285.564270,284.914734 285.934204,284.585419 286.511230,284.550720 
	C287.082703,284.071106 287.654175,283.591522 288.648071,282.980652 
	C288.648071,282.980652 288.941406,282.649567 289.503723,282.560455 
	C290.047791,282.062225 290.591888,281.564026 291.600220,280.886047 
	C291.600220,280.886047 291.923157,280.507111 292.455688,280.410889 
	C292.974213,279.942322 293.492767,279.473785 294.590088,278.808441 
	C295.036133,278.398010 295.482178,277.987579 296.511749,277.392090 
	C297.696869,276.271881 298.881989,275.151703 300.671875,273.754822 
	C303.780457,270.501404 306.889008,267.248016 310.487640,263.759705 
	C310.855103,263.150208 311.222565,262.540710 312.065948,261.562073 
	C312.386292,261.060577 312.706635,260.559052 313.527100,259.814575 
	C313.901764,259.189758 314.276428,258.564941 315.116089,257.558380 
	C315.414001,257.046021 315.711914,256.533691 316.460388,255.752945 
	C316.751221,255.137283 317.042053,254.521606 317.828888,253.466385 
	C318.242859,252.692352 318.656860,251.918304 319.539764,250.861465 
	C319.840546,250.213013 320.141327,249.564545 320.937042,248.369461 
	C322.335907,245.334671 323.734772,242.299866 325.580414,238.799835 
	C326.101959,237.169174 326.623535,235.538528 327.559723,233.237503 
	C327.656555,232.993256 327.753418,232.749023 328.492554,232.313629 
	C330.015656,231.552139 331.538788,230.790649 333.684418,229.745117 
	C335.875183,225.331009 338.065979,220.916901 340.630524,216.217712 
	C340.752136,215.478989 340.873718,214.740265 341.205627,213.508179 
	C341.210266,213.153564 341.214905,212.798950 341.591583,211.987823 
	C341.739807,210.654663 341.888031,209.321503 342.222992,207.325958 
	C342.245209,206.414276 342.267456,205.502609 342.662231,203.923401 
	C342.536255,200.086182 342.410278,196.248978 342.398254,191.677139 
	C342.255707,190.448898 342.113159,189.220642 342.143555,187.482529 
	C341.859772,186.466751 341.575989,185.450974 341.354034,183.949509 
	C341.342072,183.615143 341.248901,183.305206 341.194824,182.389618 
	C339.811279,178.895828 338.427704,175.402039 336.927246,171.427292 
	C336.927246,171.427292 336.585815,171.068939 336.410919,170.467422 
	C334.581696,169.146637 332.752472,167.825851 330.317139,166.294586 
	C329.899780,166.359451 329.482391,166.424332 328.397003,166.283722 
	C327.644989,165.762802 326.892944,165.241882 326.049591,163.998337 
	C325.402649,162.695068 324.755676,161.391800 324.133118,159.439163 
	C323.116669,157.569687 322.100189,155.700211 320.909790,153.204803 
	C320.421906,152.497086 319.934052,151.789368 319.364929,150.537903 
	C318.936249,149.971924 318.507538,149.405960 317.902405,148.210358 
	C317.407013,147.502029 316.911652,146.793716 316.332001,145.564621 
	C315.883575,145.052979 315.435181,144.541321 314.765839,143.446350 
	C314.345490,142.990128 313.925110,142.533920 313.373260,141.567642 
	C312.904297,141.070999 312.435333,140.574356 311.738220,139.479202 
	C311.044250,138.672943 310.350311,137.866699 309.446350,136.453018 
	C305.940216,133.105850 302.434113,129.758682 298.566620,125.934563 
	C298.072174,125.609840 297.577759,125.285118 296.839569,124.414932 
	C295.867523,123.758484 294.895477,123.102036 293.553497,121.966415 
	C293.054474,121.635460 292.555420,121.304504 291.779114,120.408218 
	C290.501831,119.708214 289.224579,119.008217 287.656921,117.991272 
	C287.656921,117.991272 287.241913,117.879372 286.971985,117.365158 
	C286.293884,117.036453 285.615753,116.707748 284.572601,116.056450 
	C284.572601,116.056450 284.096405,115.953583 283.717896,115.413376 
	C277.863586,112.703690 272.233215,109.156876 266.093414,107.514587 
	C259.671600,105.796860 255.807739,103.258148 256.577972,95.380920 
	C256.416809,94.616386 256.255646,93.851860 256.217926,92.387558 
	C254.827881,89.558380 253.437836,86.729195 251.857269,83.417053 
	C251.723984,83.306671 251.590683,83.196297 251.326630,82.518181 
	C250.190079,81.509300 249.053513,80.500420 247.599945,79.110069 
	C247.599945,79.110069 247.136398,78.933632 246.826126,78.353989 
	C243.878860,77.219757 240.931580,76.085526 237.508423,74.736824 
	C237.164841,74.746460 236.821243,74.756096 235.739151,74.145210 
	C236.062241,69.224594 236.572510,64.304016 236.573502,59.383335 
	C236.573746,58.190483 234.894699,56.997292 233.987839,55.804256 
	C233.122696,57.023991 231.596786,58.199379 231.511414,59.471451 
	C231.207062,64.006088 231.392410,68.573593 231.392410,73.182426 
	C227.706406,75.167580 223.283005,77.549866 218.306473,80.185585 
	C217.526230,81.099487 216.745972,82.013397 215.465973,83.164581 
	C215.130417,83.800964 214.794846,84.437347 214.003708,85.540077 
	C213.592285,86.532333 213.180878,87.524597 212.252747,89.040489 
	C211.700531,92.794746 210.758591,96.544060 210.710785,100.304726 
	C210.667038,103.746536 209.264542,104.944382 206.215866,106.270134 
	C197.286362,110.153221 188.631958,114.668953 179.410660,119.047073 
	C179.410660,119.047073 179.059387,119.362595 178.411758,119.422745 
	C176.930145,120.610069 175.448532,121.797386 173.386780,123.223167 
	C172.608292,123.913719 171.829803,124.604271 170.495651,125.395798 
	C169.988403,125.926552 169.481155,126.457306 168.373550,127.274376 
	C165.580719,130.179291 162.787888,133.084213 159.481125,136.205750 
	C159.097870,136.822937 158.714615,137.440109 157.844742,138.462341 
	C157.230850,139.310516 156.616943,140.158691 155.501556,141.229584 
	C155.128021,141.841248 154.754486,142.452927 153.914734,143.451294 
	C153.607681,143.962875 153.300613,144.474457 152.482025,145.320236 
	C151.804825,146.571014 151.127625,147.821793 150.101837,149.439804 
	C150.056381,149.602356 150.010910,149.764893 149.500336,150.191010 
	C149.208603,150.824432 148.916885,151.457840 148.100677,152.601730 
	C147.012466,154.960175 145.924255,157.318619 144.297195,160.105789 
	C142.838394,162.300644 141.379578,164.495499 139.243286,166.364319 
	C138.525131,166.485184 137.806976,166.606064 136.529144,166.678314 
	C135.928177,167.072952 135.327194,167.467575 134.110001,168.110107 
	C132.340469,170.939743 130.570923,173.769363 128.342224,176.998291 
	C127.889160,178.667328 127.436104,180.336365 126.761246,182.442841 
	C126.645065,182.758438 126.619408,183.081223 126.309418,183.710220 
	C126.213425,184.471268 126.117439,185.232315 125.806770,186.568512 
	C125.763870,187.176926 125.720970,187.785324 125.293686,188.862900 
	C125.206192,190.238693 125.118698,191.614487 124.847168,193.906006 
	C124.907585,198.272980 124.967995,202.639954 124.856018,207.578018 
	C125.128128,208.924286 125.400238,210.270554 125.616486,212.224197 
	C125.747734,212.816986 125.878983,213.409760 125.878807,214.621078 
	C126.862007,217.529297 127.845207,220.437531 128.922760,224.001526 
	C129.718369,225.315979 130.513977,226.630417 131.488846,228.492920 
	C132.346146,229.213776 133.203445,229.934631 134.455688,231.004364 
	C134.791840,231.095474 135.128006,231.186569 135.819733,231.687683 
	C136.834244,231.632492 137.848755,231.577301 139.824142,231.638809 
	C140.139969,231.704880 140.455780,231.770950 140.768494,232.510162 
	C141.455978,234.119980 142.143448,235.729782 142.920319,238.055511 
	C143.570587,239.340225 144.220856,240.624939 144.864929,242.555969 
	C145.897369,244.396912 146.929810,246.237854 148.130020,248.725952 
	C148.631195,249.454666 149.132355,250.183380 149.683624,251.453568 
	C150.097717,252.019287 150.511826,252.585007 151.047363,253.604935 
	C151.047363,253.604935 151.379807,253.937393 151.493988,254.486511 
	C151.977371,255.029648 152.460770,255.572769 153.126999,256.591705 
	C153.256836,256.701263 153.386688,256.810852 153.630356,257.439972 
	C154.089127,257.955109 154.547882,258.470215 155.197800,259.563934 
	C155.595245,260.021057 155.992706,260.478180 156.516602,261.467560 
	C157.015396,261.968658 157.514175,262.469727 158.282104,263.570068 
	C159.331955,264.688995 160.381805,265.807892 161.633087,267.524261 
	C163.779449,269.548248 165.925797,271.572266 168.429840,274.151550 
	C169.616531,275.102570 170.803238,276.053619 172.211136,277.508209 
	C172.830063,277.870056 173.448975,278.231873 174.430939,279.068115 
	C174.924637,279.392700 175.418320,279.717316 176.196365,280.611023 
	C177.820648,281.597412 179.444916,282.583771 181.421173,283.912811 
	C181.421173,283.912811 181.892303,284.051880 182.144791,284.536804 
	C182.792267,284.826538 183.439743,285.116241 184.489502,285.802246 
	C184.666992,285.864868 184.844498,285.927490 185.377090,286.533875 
	C192.260330,289.383118 199.143555,292.232391 206.427719,295.340271 
	C206.427719,295.340271 206.896118,295.431030 206.896118,295.431030 
	C206.896118,295.431030 207.365295,295.344391 207.703369,295.714447 
	C208.485397,295.859802 209.267426,296.005157 210.440720,296.394043 
	C210.440720,296.394043 210.895065,296.471436 210.895065,296.471436 
	C210.895065,296.471436 211.344879,296.371033 211.777740,296.752136 
	C212.874069,296.901794 213.970398,297.051422 215.489746,297.412903 
	C215.489746,297.412903 215.961685,297.445587 215.961685,297.445587 
	C215.961685,297.445587 216.413300,297.304749 216.847397,297.656586 
	C217.908188,297.801300 218.968979,297.946014 220.657501,298.359985 
	C221.557205,298.351868 222.456909,298.343750 224.052673,298.724030 
	C231.564880,298.576050 239.077103,298.428040 247.030685,298.447205 
	C247.359177,298.501434 247.659836,298.433136 248.514633,298.442322 
	C249.897949,298.085327 251.281250,297.728302 253.096359,297.493866 
	C253.410431,297.512115 253.690674,297.423462 254.464111,297.402954 
	C255.510910,297.040192 256.557709,296.677429 258.077057,296.418427 
M266.950867,69.110519 
	C265.788452,66.063843 263.931915,66.148415 262.313202,68.480843 
	C260.351532,71.307434 258.637512,74.348801 257.205627,77.475517 
	C256.741333,78.489403 257.502533,80.064514 257.703156,81.382904 
	C259.043610,80.831558 260.965942,80.658791 261.616608,79.658684 
	C263.659973,76.517975 265.224915,73.065979 266.950867,69.110519 
M210.453659,82.220955 
	C211.171906,79.210724 206.759216,69.225029 204.171814,68.370689 
	C203.395493,68.114342 202.075287,68.315315 201.541122,68.846581 
	C200.995850,69.388870 200.668427,70.829926 201.009506,71.471199 
	C202.934891,75.090950 205.015900,78.636559 207.245865,82.076492 
	C207.585831,82.600906 208.978012,82.443222 210.453659,82.220955 
z"/>
<path fill="#D1D1D1" opacity="1.000000" stroke="none" 
	d="
M469.500000,375.000000 
	C469.000214,250.644028 469.000427,126.288055 469.000336,1.466040 
	C469.333344,2.333329 469.957336,3.666453 469.958282,5.000026 
	C470.005829,70.999992 470.000000,137.000000 470.000000,203.000000 
	C470.000000,260.333344 470.000000,317.666656 469.500000,375.000000 
z"/>
<path fill="#FEF8F6" opacity="1.000000" stroke="none" 
	d="
M149.633530,250.912094 
	C149.132355,250.183380 148.631195,249.454666 148.014511,248.066772 
	C146.889709,245.574936 145.880417,243.742279 144.871124,241.909637 
	C144.220856,240.624939 143.570587,239.340225 142.875488,237.349747 
	C142.144302,235.041656 141.457932,233.439331 140.771576,231.837006 
	C140.455780,231.770950 140.139969,231.704880 139.019592,231.458771 
	C137.298096,231.278381 136.381119,231.278030 135.464157,231.277679 
	C135.128006,231.186569 134.791840,231.095474 134.174866,230.551483 
	C133.032578,229.380692 132.171082,228.662781 131.309601,227.944870 
	C130.513977,226.630417 129.718369,225.315979 128.859192,223.282242 
	C127.867157,219.709488 126.938690,216.856018 126.010223,214.002548 
	C125.878983,213.409760 125.747734,212.816986 125.730186,211.524368 
	C125.572067,209.552002 125.300240,208.279465 125.028412,207.006927 
	C124.967995,202.639954 124.907585,198.272980 125.131012,193.103088 
	C125.502602,190.998032 125.590332,189.695892 125.678070,188.393738 
	C125.720970,187.785324 125.763870,187.176926 126.095276,185.990112 
	C126.483948,184.744888 126.584114,184.078049 126.684280,183.411209 
	C126.619408,183.081223 126.645065,182.758438 127.093369,181.942200 
	C127.884132,179.827377 128.342758,178.213181 128.801392,176.598999 
	C130.570923,173.769363 132.340469,170.939743 134.693848,167.981247 
	C135.881409,167.477234 136.485123,167.102081 137.088821,166.726944 
	C137.806976,166.606064 138.525131,166.485184 139.747147,166.713211 
	C141.779358,164.600418 143.307709,162.138748 144.836060,159.677063 
	C145.924255,157.318619 147.012466,154.960175 148.591797,152.206909 
	C149.377090,151.183853 149.671265,150.555634 149.965454,149.927429 
	C150.010910,149.764893 150.056381,149.602356 150.549942,149.113678 
	C151.663208,147.520370 152.328369,146.253189 152.993530,144.986023 
	C153.300613,144.474457 153.607681,143.962875 154.403107,143.148346 
	C155.262009,142.232559 155.632523,141.619705 156.003052,141.006866 
	C156.616943,140.158691 157.230850,139.310516 158.347580,138.151001 
	C159.231964,137.222824 159.613510,136.605988 159.995056,135.989136 
	C162.787888,133.084213 165.580719,130.179291 168.952850,127.073723 
	C170.038528,126.346985 170.544922,125.820900 171.051315,125.294815 
	C171.829803,124.604271 172.608292,123.913719 174.002930,123.046745 
	C176.099197,121.701080 177.579285,120.531837 179.059387,119.362595 
	C179.059387,119.362595 179.410660,119.047073 180.001251,118.955696 
	C187.611481,115.561111 194.499512,111.931412 201.683212,109.035095 
	C211.244904,105.180016 211.952438,107.597458 212.039413,95.413528 
	C212.055832,93.113022 212.514740,90.815666 212.769470,88.516861 
	C213.180878,87.524597 213.592285,86.532333 214.480118,85.182709 
	C215.292923,84.192657 215.629318,83.559982 215.965729,82.927307 
	C216.745972,82.013397 217.526230,81.099487 218.939270,80.000610 
	C225.207275,78.132339 230.842468,76.449036 236.477661,74.765732 
	C236.821243,74.756096 237.164841,74.746460 238.020020,75.065895 
	C241.399872,76.574524 244.268127,77.754074 247.136398,78.933632 
	C247.136398,78.933632 247.599945,79.110069 247.844742,79.578064 
	C249.212158,81.059349 250.334778,82.072639 251.457397,83.085930 
	C251.590683,83.196297 251.723984,83.306671 252.000122,84.015862 
	C253.460129,87.438889 254.777313,90.263107 256.094482,93.087326 
	C256.255646,93.851860 256.416809,94.616386 256.386932,96.124718 
	C256.194336,100.166573 254.308258,104.202988 258.714630,106.030457 
	C267.104004,109.509834 275.628204,112.664246 284.096405,115.953583 
	C284.096405,115.953583 284.572601,116.056450 284.891846,116.476265 
	C285.888031,117.223846 286.564972,117.551605 287.241913,117.879372 
	C287.241913,117.879372 287.656921,117.991272 287.932312,118.438049 
	C289.490570,119.581055 290.773499,120.277298 292.056396,120.973541 
	C292.555420,121.304504 293.054474,121.635460 293.839386,122.495056 
	C295.111298,123.669266 296.097290,124.314827 297.083313,124.960396 
	C297.577759,125.285118 298.072174,125.609840 298.845154,126.477600 
	C302.634552,130.367233 306.145447,133.713837 309.656342,137.060440 
	C310.350311,137.866699 311.044250,138.672943 311.897034,140.042603 
	C312.538818,141.096588 313.021759,141.587158 313.504730,142.077713 
	C313.925110,142.533920 314.345490,142.990128 314.913086,143.999878 
	C315.512329,145.064056 315.964294,145.574722 316.416260,146.085388 
	C316.911652,146.793716 317.407013,147.502029 318.013977,148.801727 
	C318.565735,149.955963 319.005951,150.518799 319.446167,151.081650 
	C319.934052,151.789368 320.421906,152.497086 321.028473,153.857056 
	C322.134338,156.369049 323.121521,158.228790 324.108704,160.088531 
	C324.755676,161.391800 325.402649,162.695068 326.103302,164.656647 
	C327.126343,165.706375 328.095703,166.097778 329.065033,166.489197 
	C329.482391,166.424332 329.899780,166.359451 330.767334,166.661652 
	C333.006958,168.375473 334.796387,169.722198 336.585815,171.068939 
	C336.585815,171.068939 336.927246,171.427292 337.027527,172.038422 
	C338.443390,176.106277 339.758911,179.562988 341.074463,183.019699 
	C341.248901,183.305206 341.342072,183.615143 341.259705,184.563080 
	C341.433746,186.115234 341.702148,187.053818 341.970581,187.992401 
	C342.113159,189.220642 342.255707,190.448898 342.241943,192.548553 
	C342.153656,197.143616 342.221649,200.867264 342.289673,204.590927 
	C342.267456,205.502609 342.245209,206.414276 341.926697,207.986053 
	C341.493500,209.912201 341.356537,211.178268 341.219543,212.444336 
	C341.214905,212.798950 341.210266,213.153564 340.909668,214.031204 
	C340.494720,215.203751 340.375732,215.853271 340.256714,216.502792 
	C338.065979,220.916901 335.875183,225.331009 333.035248,229.924973 
	C330.874146,230.904816 329.362213,231.704803 327.850250,232.504791 
	C327.753418,232.749023 327.656555,232.993256 327.130951,233.792145 
	C326.179352,235.986221 325.656494,237.625641 325.133636,239.265060 
	C323.734772,242.299866 322.335907,245.334671 320.453369,248.785721 
	C319.670105,249.849411 319.370453,250.496826 319.070862,251.144257 
	C318.656860,251.918304 318.242859,252.692352 317.356323,253.823120 
	C316.592468,254.793671 316.301147,255.407516 316.009827,256.021362 
	C315.711914,256.533691 315.414001,257.046021 314.623871,257.863007 
	C313.763428,258.797607 313.395203,259.427582 313.026978,260.057556 
	C312.706635,260.559052 312.386292,261.060577 311.574646,261.857788 
	C310.721405,262.767181 310.359497,263.380890 309.997589,263.994598 
	C306.889008,267.248016 303.780457,270.501404 300.049652,273.943695 
	C298.261017,275.280762 297.094604,276.428955 295.928192,277.577148 
	C295.482178,277.987579 295.036133,278.398010 294.029358,278.943695 
	C292.953491,279.554993 292.438324,280.031067 291.923157,280.507111 
	C291.923157,280.507111 291.600220,280.886047 291.083099,281.018219 
	C290.024445,281.650116 289.482910,282.149841 288.941406,282.649567 
	C288.941406,282.649567 288.648071,282.980652 288.149353,283.076324 
	C287.078491,283.643158 286.506348,284.114288 285.934204,284.585419 
	C285.934204,284.585419 285.564270,284.914734 284.961151,285.016052 
	C275.896118,288.778320 267.434204,292.439331 258.972290,296.100342 
	C258.714783,296.321533 258.416382,296.427582 257.449066,296.306274 
	C255.859756,296.538727 254.898422,296.883331 253.937103,297.227905 
	C253.690674,297.423462 253.410431,297.512115 252.465973,297.344299 
	C250.534607,297.543915 249.233627,297.893097 247.932648,298.242279 
	C247.659836,298.433136 247.359177,298.501434 246.303848,298.273132 
	C238.170212,298.177948 230.763412,298.256775 223.356613,298.335632 
	C222.456909,298.343750 221.557205,298.351868 220.030243,298.004517 
	C218.406418,297.534271 217.409851,297.419495 216.413300,297.304749 
	C216.413300,297.304749 215.961685,297.445587 215.961685,297.445587 
	C215.961685,297.445587 215.489746,297.412903 214.955475,297.079468 
	C213.395767,296.621002 212.370331,296.496002 211.344879,296.371033 
	C211.344879,296.371033 210.895065,296.471436 210.895065,296.471436 
	C210.895065,296.471436 210.440720,296.394043 209.954102,296.056396 
	C208.766754,295.593964 208.066025,295.469177 207.365295,295.344391 
	C207.365295,295.344391 206.896118,295.431030 206.896118,295.431030 
	C206.896118,295.431030 206.427719,295.340271 205.964539,294.969482 
	C198.674927,291.729156 191.848465,288.859619 185.022018,285.990112 
	C184.844498,285.927490 184.666992,285.864868 184.150391,285.368713 
	C183.171616,284.640778 182.531952,284.346344 181.892303,284.051880 
	C181.892303,284.051880 181.421173,283.912811 181.105560,283.461426 
	C179.163971,282.020660 177.537979,281.031311 175.912003,280.041931 
	C175.418320,279.717316 174.924637,279.392700 174.138733,278.575684 
	C173.227661,277.723724 172.608795,277.364197 171.989929,277.004639 
	C170.803238,276.053619 169.616531,275.102570 168.160568,273.569336 
	C165.738083,270.967010 163.584869,268.946899 161.431656,266.926819 
	C160.381805,265.807892 159.331955,264.688995 158.095032,262.999023 
	C157.402039,261.930450 156.896088,261.432861 156.390152,260.935303 
	C155.992706,260.478180 155.595245,260.021057 155.065033,259.006714 
	C154.460358,257.939819 153.988434,257.430145 153.516525,256.920471 
	C153.386688,256.810852 153.256836,256.701263 152.993439,256.072021 
	C152.366531,255.014008 151.873169,254.475693 151.379807,253.937393 
	C151.379807,253.937393 151.047363,253.604935 150.969070,253.105545 
	C150.471695,252.041458 150.052612,251.476776 149.633530,250.912094 
M320.993378,164.544662 
	C314.701324,149.895248 305.656982,137.347656 293.021423,127.454750 
	C290.754150,125.679626 289.178864,125.362495 286.493622,126.961624 
	C251.834595,147.601913 216.875610,148.073502 181.847778,127.901810 
	C179.108093,126.324089 177.366486,126.185196 174.888336,128.271698 
	C154.067215,145.802170 142.486282,167.952408 140.670074,195.210907 
	C136.883408,252.042465 186.017105,299.348114 242.789093,293.981415 
	C307.210846,287.891602 344.747070,222.534241 320.993378,164.544662 
M233.305511,89.009247 
	C233.973083,88.049660 234.640656,87.090073 235.308243,86.130493 
	C234.165710,85.689072 233.006973,84.833344 231.883408,84.877251 
	C226.747192,85.077950 221.300674,90.563126 221.171844,95.666122 
	C221.143311,96.796738 222.016113,97.950096 222.473907,99.092987 
	C223.436386,98.195312 224.988022,97.445175 225.256363,96.373680 
	C226.260681,92.363205 228.540451,89.945770 233.305511,89.009247 
z"/>
<path fill="#FCE2D9" opacity="1.000000" stroke="none" 
	d="
M236.108398,74.455475 
	C230.842468,76.449036 225.207275,78.132339 219.215851,79.873901 
	C223.283005,77.549866 227.706406,75.167580 231.392410,73.182426 
	C231.392410,68.573593 231.207062,64.006088 231.511414,59.471451 
	C231.596786,58.199379 233.122696,57.023991 233.987839,55.804256 
	C234.894699,56.997292 236.573746,58.190483 236.573502,59.383335 
	C236.572510,64.304016 236.062241,69.224594 236.108398,74.455475 
z"/>
<path fill="#FDEAE3" opacity="1.000000" stroke="none" 
	d="
M266.962982,69.422523 
	C265.224915,73.065979 263.659973,76.517975 261.616608,79.658684 
	C260.965942,80.658791 259.043610,80.831558 257.703156,81.382904 
	C257.502533,80.064514 256.741333,78.489403 257.205627,77.475517 
	C258.637512,74.348801 260.351532,71.307434 262.313202,68.480843 
	C263.931915,66.148415 265.788452,66.063843 266.962982,69.422523 
z"/>
<path fill="#FDE9E1" opacity="1.000000" stroke="none" 
	d="
M210.168579,82.410995 
	C208.978012,82.443222 207.585831,82.600906 207.245865,82.076492 
	C205.015900,78.636559 202.934891,75.090950 201.009506,71.471199 
	C200.668427,70.829926 200.995850,69.388870 201.541122,68.846581 
	C202.075287,68.315315 203.395493,68.114342 204.171814,68.370689 
	C206.759216,69.225029 211.171906,79.210724 210.168579,82.410995 
z"/>
<path fill="#FCE2D9" opacity="1.000000" stroke="none" 
	d="
M212.511108,88.778671 
	C212.514740,90.815666 212.055832,93.113022 212.039413,95.413528 
	C211.952438,107.597458 211.244904,105.180016 201.683212,109.035095 
	C194.499512,111.931412 187.611481,115.561111 180.230804,118.900574 
	C188.631958,114.668953 197.286362,110.153221 206.215866,106.270134 
	C209.264542,104.944382 210.667038,103.746536 210.710785,100.304726 
	C210.758591,96.544060 211.700531,92.794746 212.511108,88.778671 
z"/>
<path fill="#FCE2D9" opacity="1.000000" stroke="none" 
	d="
M283.907166,115.683479 
	C275.628204,112.664246 267.104004,109.509834 258.714630,106.030457 
	C254.308258,104.202988 256.194336,100.166573 256.336121,96.514954 
	C255.807739,103.258148 259.671600,105.796860 266.093414,107.514587 
	C272.233215,109.156876 277.863586,112.703690 283.907166,115.683479 
z"/>
<path fill="#FCE2D9" opacity="1.000000" stroke="none" 
	d="
M259.277405,296.163940 
	C267.434204,292.439331 275.896118,288.778320 284.721680,285.079041 
	C276.584351,288.769714 268.083435,292.498627 259.277405,296.163940 
z"/>
<path fill="#FCE2D9" opacity="1.000000" stroke="none" 
	d="
M223.704651,298.529846 
	C230.763412,298.256775 238.170212,298.177948 246.083160,298.189575 
	C239.077103,298.428040 231.564880,298.576050 223.704651,298.529846 
z"/>
<path fill="#FCE2D9" opacity="1.000000" stroke="none" 
	d="
M185.199554,286.261993 
	C191.848465,288.859619 198.674927,291.729156 205.764084,294.840149 
	C199.143555,292.232391 192.260330,289.383118 185.199554,286.261993 
z"/>
<path fill="#FCE2D9" opacity="1.000000" stroke="none" 
	d="
M309.551331,136.756729 
	C306.145447,133.713837 302.634552,130.367233 299.025818,126.716064 
	C302.434113,129.758682 305.940216,133.105850 309.551331,136.756729 
z"/>
<path fill="#FCE2D9" opacity="1.000000" stroke="none" 
	d="
M342.475952,204.257172 
	C342.221649,200.867264 342.153656,197.143616 342.184967,192.915863 
	C342.410278,196.248978 342.536255,200.086182 342.475952,204.257172 
z"/>
<path fill="#FCE2D9" opacity="1.000000" stroke="none" 
	d="
M341.134644,182.704651 
	C339.758911,179.562988 338.443390,176.106277 337.085999,172.278900 
	C338.427704,175.402039 339.811279,178.895828 341.134644,182.704651 
z"/>
<path fill="#FCE2D9" opacity="1.000000" stroke="none" 
	d="
M161.532379,267.225525 
	C163.584869,268.946899 165.738083,270.967010 167.981720,273.291687 
	C165.925797,271.572266 163.779449,269.548248 161.532379,267.225525 
z"/>
<path fill="#FCE2D9" opacity="1.000000" stroke="none" 
	d="
M246.981262,78.643814 
	C244.268127,77.754074 241.399872,76.574524 238.257965,75.173126 
	C240.931580,76.085526 243.878860,77.219757 246.981262,78.643814 
z"/>
<path fill="#FCE2D9" opacity="1.000000" stroke="none" 
	d="
M256.156189,92.737442 
	C254.777313,90.263107 253.460129,87.438889 252.095367,84.257339 
	C253.437836,86.729195 254.827881,89.558380 256.156189,92.737442 
z"/>
<path fill="#FCE2D9" opacity="1.000000" stroke="none" 
	d="
M144.566620,159.891418 
	C143.307709,162.138748 141.779358,164.600418 140.085892,166.876221 
	C141.379578,164.495499 142.838394,162.300644 144.566620,159.891418 
z"/>
<path fill="#FCE2D9" opacity="1.000000" stroke="none" 
	d="
M125.944519,214.311813 
	C126.938690,216.856018 127.867157,219.709488 128.812012,222.954346 
	C127.845207,220.437531 126.862007,217.529297 125.944519,214.311813 
z"/>
<path fill="#FCE2D9" opacity="1.000000" stroke="none" 
	d="
M336.498352,170.768173 
	C334.796387,169.722198 333.006958,168.375473 331.070374,166.766891 
	C332.752472,167.825851 334.581696,169.146637 336.498352,170.768173 
z"/>
<path fill="#FCE2D9" opacity="1.000000" stroke="none" 
	d="
M324.120911,159.763855 
	C323.121521,158.228790 322.134338,156.369049 321.115417,154.170013 
	C322.100189,155.700211 323.116669,157.569687 324.120911,159.763855 
z"/>
<path fill="#FCE2D9" opacity="1.000000" stroke="none" 
	d="
M144.868027,242.232803 
	C145.880417,243.742279 146.889709,245.574936 147.930634,247.743195 
	C146.929810,246.237854 145.897369,244.396912 144.868027,242.232803 
z"/>
<path fill="#FCE2D9" opacity="1.000000" stroke="none" 
	d="
M178.735565,119.392670 
	C177.579285,120.531837 176.099197,121.701080 174.292999,122.927521 
	C175.448532,121.797386 176.930145,120.610069 178.735565,119.392670 
z"/>
<path fill="#FCE2D9" opacity="1.000000" stroke="none" 
	d="
M176.054184,280.326477 
	C177.537979,281.031311 179.163971,282.020660 180.929581,283.290100 
	C179.444916,282.583771 177.820648,281.597412 176.054184,280.326477 
z"/>
<path fill="#FCE2D9" opacity="1.000000" stroke="none" 
	d="
M251.392014,82.802055 
	C250.334778,82.072639 249.212158,81.059349 248.003235,79.768799 
	C249.053513,80.500420 250.190079,81.509300 251.392014,82.802055 
z"/>
<path fill="#FCE2D9" opacity="1.000000" stroke="none" 
	d="
M296.219971,277.484619 
	C297.094604,276.428955 298.261017,275.280762 299.747284,274.082031 
	C298.881989,275.151703 297.696869,276.271881 296.219971,277.484619 
z"/>
<path fill="#FCE2D9" opacity="1.000000" stroke="none" 
	d="
M325.357025,239.032440 
	C325.656494,237.625641 326.179352,235.986221 326.923645,234.127319 
	C326.623535,235.538528 326.101959,237.169174 325.357025,239.032440 
z"/>
<path fill="#FCE2D9" opacity="1.000000" stroke="none" 
	d="
M128.571808,176.798645 
	C128.342758,178.213181 127.884132,179.827377 127.204269,181.723480 
	C127.436104,180.336365 127.889160,178.667328 128.571808,176.798645 
z"/>
<path fill="#FCE2D9" opacity="1.000000" stroke="none" 
	d="
M140.770035,232.173584 
	C141.457932,233.439331 142.144302,235.041656 142.830795,236.991791 
	C142.143448,235.729782 141.455978,234.119980 140.770035,232.173584 
z"/>
<path fill="#FCE2D9" opacity="1.000000" stroke="none" 
	d="
M328.171387,232.409210 
	C329.362213,231.704803 330.874146,230.904816 332.723999,230.066986 
	C331.538788,230.790649 330.015656,231.552139 328.171387,232.409210 
z"/>
<path fill="#FCE2D9" opacity="1.000000" stroke="none" 
	d="
M291.917755,120.690872 
	C290.773499,120.277298 289.490570,119.581055 288.077484,118.596512 
	C289.224579,119.008217 290.501831,119.708214 291.917755,120.690872 
z"/>
<path fill="#FCE2D9" opacity="1.000000" stroke="none" 
	d="
M152.737778,145.153137 
	C152.328369,146.253189 151.663208,147.520370 150.724243,148.930054 
	C151.127625,147.821793 151.804825,146.571014 152.737778,145.153137 
z"/>
<path fill="#FCE2D9" opacity="1.000000" stroke="none" 
	d="
M248.223633,298.342285 
	C249.233627,297.893097 250.534607,297.543915 252.250092,297.283020 
	C251.281250,297.728302 249.897949,298.085327 248.223633,298.342285 
z"/>
<path fill="#FCE2D9" opacity="1.000000" stroke="none" 
	d="
M341.405579,212.216080 
	C341.356537,211.178268 341.493500,209.912201 341.833313,208.317230 
	C341.888031,209.321503 341.739807,210.654663 341.405579,212.216080 
z"/>
<path fill="#FCE2D9" opacity="1.000000" stroke="none" 
	d="
M124.942215,207.292480 
	C125.300240,208.279465 125.572067,209.552002 125.758118,211.220673 
	C125.400238,210.270554 125.128128,208.924286 124.942215,207.292480 
z"/>
<path fill="#FCE2D9" opacity="1.000000" stroke="none" 
	d="
M125.485870,188.628326 
	C125.590332,189.695892 125.502602,190.998032 125.223030,192.645233 
	C125.118698,191.614487 125.206192,190.238693 125.485870,188.628326 
z"/>
<path fill="#FCE2D9" opacity="1.000000" stroke="none" 
	d="
M131.399231,228.218903 
	C132.171082,228.662781 133.032578,229.380692 133.977402,230.377045 
	C133.203445,229.934631 132.346146,229.213776 131.399231,228.218903 
z"/>
<path fill="#FCE2D9" opacity="1.000000" stroke="none" 
	d="
M296.961426,124.687668 
	C296.097290,124.314827 295.111298,123.669266 294.024353,122.734642 
	C294.895477,123.102036 295.867523,123.758484 296.961426,124.687668 
z"/>
<path fill="#FCE2D9" opacity="1.000000" stroke="none" 
	d="
M328.731018,166.386444 
	C328.095703,166.097778 327.126343,165.706375 326.148987,165.017960 
	C326.892944,165.241882 327.644989,165.762802 328.731018,166.386444 
z"/>
<path fill="#FCE2D9" opacity="1.000000" stroke="none" 
	d="
M216.630341,297.480652 
	C217.409851,297.419495 218.406418,297.534271 219.716370,297.869873 
	C218.968979,297.946014 217.908188,297.801300 216.630341,297.480652 
z"/>
<path fill="#FCE2D9" opacity="1.000000" stroke="none" 
	d="
M135.641937,231.482681 
	C136.381119,231.278030 137.298096,231.278381 138.539154,231.400421 
	C137.848755,231.577301 136.834244,231.632492 135.641937,231.482681 
z"/>
<path fill="#FCE2D9" opacity="1.000000" stroke="none" 
	d="
M254.200607,297.315430 
	C254.898422,296.883331 255.859756,296.538727 257.212769,296.254395 
	C256.557709,296.677429 255.510910,297.040192 254.200607,297.315430 
z"/>
<path fill="#FCE2D9" opacity="1.000000" stroke="none" 
	d="
M211.561310,296.561584 
	C212.370331,296.496002 213.395767,296.621002 214.743973,296.973541 
	C213.970398,297.051422 212.874069,296.901794 211.561310,296.561584 
z"/>
<path fill="#FCE2D9" opacity="1.000000" stroke="none" 
	d="
M342.057068,187.737457 
	C341.702148,187.053818 341.433746,186.115234 341.228760,184.805923 
	C341.575989,185.450974 341.859772,186.466751 342.057068,187.737457 
z"/>
<path fill="#FCE2D9" opacity="1.000000" stroke="none" 
	d="
M286.222717,284.568054 
	C286.506348,284.114288 287.078491,283.643158 287.938110,283.141968 
	C287.654175,283.591522 287.082703,284.071106 286.222717,284.568054 
z"/>
<path fill="#FCE2D9" opacity="1.000000" stroke="none" 
	d="
M182.018555,284.294342 
	C182.531952,284.346344 183.171616,284.640778 183.949249,285.170593 
	C183.439743,285.116241 182.792267,284.826538 182.018555,284.294342 
z"/>
<path fill="#FCE2D9" opacity="1.000000" stroke="none" 
	d="
M289.222565,282.605011 
	C289.482910,282.149841 290.024445,281.650116 290.850952,281.108093 
	C290.591888,281.564026 290.047791,282.062225 289.222565,282.605011 
z"/>
<path fill="#FCE2D9" opacity="1.000000" stroke="none" 
	d="
M215.715851,83.045944 
	C215.629318,83.559982 215.292923,84.192657 214.707901,84.949524 
	C214.794846,84.437347 215.130417,83.800964 215.715851,83.045944 
z"/>
<path fill="#FCE2D9" opacity="1.000000" stroke="none" 
	d="
M313.438995,141.822678 
	C313.021759,141.587158 312.538818,141.096588 312.011108,140.341858 
	C312.435333,140.574356 312.904297,141.070999 313.438995,141.822678 
z"/>
<path fill="#FCE2D9" opacity="1.000000" stroke="none" 
	d="
M207.534332,295.529419 
	C208.066025,295.469177 208.766754,295.593964 209.758469,295.934631 
	C209.267426,296.005157 208.485397,295.859802 207.534332,295.529419 
z"/>
<path fill="#FCE2D9" opacity="1.000000" stroke="none" 
	d="
M159.738098,136.097443 
	C159.613510,136.605988 159.231964,137.222824 158.590881,137.948471 
	C158.714615,137.440109 159.097870,136.822937 159.738098,136.097443 
z"/>
<path fill="#FCE2D9" opacity="1.000000" stroke="none" 
	d="
M292.189423,280.458984 
	C292.438324,280.031067 292.953491,279.554993 293.739990,279.042084 
	C293.492767,279.473785 292.974213,279.942322 292.189423,280.458984 
z"/>
<path fill="#FCE2D9" opacity="1.000000" stroke="none" 
	d="
M316.235107,255.887146 
	C316.301147,255.407516 316.592468,254.793671 317.108337,254.042877 
	C317.042053,254.521606 316.751221,255.137283 316.235107,255.887146 
z"/>
<path fill="#FCE2D9" opacity="1.000000" stroke="none" 
	d="
M126.496849,183.560715 
	C126.584114,184.078049 126.483948,184.744888 126.202621,185.702545 
	C126.117439,185.232315 126.213425,184.471268 126.496849,183.560715 
z"/>
<path fill="#FCE2D9" opacity="1.000000" stroke="none" 
	d="
M319.405548,150.809784 
	C319.005951,150.518799 318.565735,149.955963 318.102173,149.116547 
	C318.507538,149.405960 318.936249,149.971924 319.405548,150.809784 
z"/>
<path fill="#FCE2D9" opacity="1.000000" stroke="none" 
	d="
M340.443604,216.360260 
	C340.375732,215.853271 340.494720,215.203751 340.804504,214.277893 
	C340.873718,214.740265 340.752136,215.478989 340.443604,216.360260 
z"/>
<path fill="#FCE2D9" opacity="1.000000" stroke="none" 
	d="
M287.106934,117.622269 
	C286.564972,117.551605 285.888031,117.223846 285.074371,116.637558 
	C285.615753,116.707748 286.293884,117.036453 287.106934,117.622269 
z"/>
<path fill="#FCE2D9" opacity="1.000000" stroke="none" 
	d="
M149.732880,150.059219 
	C149.671265,150.555634 149.377090,151.183853 148.854034,151.951660 
	C148.916885,151.457840 149.208603,150.824432 149.732880,150.059219 
z"/>
<path fill="#FCE2D9" opacity="1.000000" stroke="none" 
	d="
M319.305298,251.002869 
	C319.370453,250.496826 319.670105,249.849411 320.205902,249.059021 
	C320.141327,249.564545 319.840546,250.213013 319.305298,251.002869 
z"/>
<path fill="#FCE2D9" opacity="1.000000" stroke="none" 
	d="
M149.658569,251.182831 
	C150.052612,251.476776 150.471695,252.041458 150.908356,252.878448 
	C150.511826,252.585007 150.097717,252.019287 149.658569,251.182831 
z"/>
<path fill="#FCE2D9" opacity="1.000000" stroke="none" 
	d="
M151.436890,254.211945 
	C151.873169,254.475693 152.366531,255.014008 152.902008,255.834106 
	C152.460770,255.572769 151.977371,255.029648 151.436890,254.211945 
z"/>
<path fill="#FCE2D9" opacity="1.000000" stroke="none" 
	d="
M172.100525,277.256409 
	C172.608795,277.364197 173.227661,277.723724 173.957214,278.338501 
	C173.448975,278.231873 172.830063,277.870056 172.100525,277.256409 
z"/>
<path fill="#FCE2D9" opacity="1.000000" stroke="none" 
	d="
M136.808990,166.702637 
	C136.485123,167.102081 135.881409,167.477234 135.001953,167.857300 
	C135.327194,167.467575 135.928177,167.072952 136.808990,166.702637 
z"/>
<path fill="#FCE2D9" opacity="1.000000" stroke="none" 
	d="
M153.573441,257.180237 
	C153.988434,257.430145 154.460358,257.939819 154.969452,258.717407 
	C154.547882,258.470215 154.089127,257.955109 153.573441,257.180237 
z"/>
<path fill="#FCE2D9" opacity="1.000000" stroke="none" 
	d="
M313.277039,259.936066 
	C313.395203,259.427582 313.763428,258.797607 314.391357,258.053894 
	C314.276428,258.564941 313.901764,259.189758 313.277039,259.936066 
z"/>
<path fill="#FCE2D9" opacity="1.000000" stroke="none" 
	d="
M156.453369,261.201416 
	C156.896088,261.432861 157.402039,261.930450 157.960480,262.699402 
	C157.514175,262.469727 157.015396,261.968658 156.453369,261.201416 
z"/>
<path fill="#FCE2D9" opacity="1.000000" stroke="none" 
	d="
M310.242615,263.877136 
	C310.359497,263.380890 310.721405,262.767181 311.336670,262.042358 
	C311.222565,262.540710 310.855103,263.150208 310.242615,263.877136 
z"/>
<path fill="#FCE2D9" opacity="1.000000" stroke="none" 
	d="
M316.374146,145.825012 
	C315.964294,145.574722 315.512329,145.064056 315.023560,144.291534 
	C315.435181,144.541321 315.883575,145.052979 316.374146,145.825012 
z"/>
<path fill="#FCE2D9" opacity="1.000000" stroke="none" 
	d="
M170.773483,125.345306 
	C170.544922,125.820900 170.038528,126.346985 169.253021,126.930557 
	C169.481155,126.457306 169.988403,125.926552 170.773483,125.345306 
z"/>
<path fill="#FCE2D9" opacity="1.000000" stroke="none" 
	d="
M155.752304,141.118225 
	C155.632523,141.619705 155.262009,142.232559 154.636215,142.954987 
	C154.754486,142.452927 155.128021,141.841248 155.752304,141.118225 
z"/>
<path fill="#F06935" opacity="1.000000" stroke="none" 
	d="
M321.136505,164.900238 
	C344.747070,222.534241 307.210846,287.891602 242.789093,293.981415 
	C186.017105,299.348114 136.883408,252.042465 140.670074,195.210907 
	C142.486282,167.952408 154.067215,145.802170 174.888336,128.271698 
	C177.366486,126.185196 179.108093,126.324089 181.847778,127.901810 
	C216.875610,148.073502 251.834595,147.601913 286.493622,126.961624 
	C289.178864,125.362495 290.754150,125.679626 293.021423,127.454750 
	C305.656982,137.347656 314.701324,149.895248 321.136505,164.900238 
M162.963959,252.709351 
	C163.622055,253.480942 164.280151,254.252533 165.163162,255.641052 
	C166.364090,256.895020 167.565018,258.148987 169.054916,259.980896 
	C171.079941,261.872711 173.104965,263.764557 175.473618,266.188171 
	C176.298584,266.833099 177.123535,267.478058 178.334091,268.671600 
	C180.202637,270.057892 181.986359,271.579712 183.952423,272.810181 
	C214.522644,291.942535 246.030609,293.208771 279.003418,277.538971 
	C279.683380,277.079559 280.363312,276.620117 281.725922,275.989410 
	C285.486206,273.332245 289.246460,270.675079 293.609375,267.790741 
	C294.557495,266.917053 295.505585,266.043335 297.038330,264.903198 
	C317.467407,246.611603 326.165527,223.540863 323.984802,196.499527 
	C322.096649,173.085892 313.139465,153.100616 293.525726,138.843597 
	C291.134247,137.105240 289.420074,137.052109 286.847809,138.477997 
	C253.516891,156.954361 219.681641,155.908997 185.678299,140.544479 
	C177.265503,136.743149 177.417633,136.404739 170.476044,142.809631 
	C170.109238,143.148071 169.773346,143.520035 169.406128,143.858017 
	C155.543793,156.616989 149.573868,173.080917 147.368805,191.230103 
	C144.789246,212.461594 148.203445,232.351517 161.250702,250.530685 
	C161.747559,251.065765 162.244400,251.600830 162.963959,252.709351 
z"/>
<path fill="#F27748" opacity="1.000000" stroke="none" 
	d="
M232.947968,89.096268 
	C228.540451,89.945770 226.260681,92.363205 225.256363,96.373680 
	C224.988022,97.445175 223.436386,98.195312 222.473907,99.092987 
	C222.016113,97.950096 221.143311,96.796738 221.171844,95.666122 
	C221.300674,90.563126 226.747192,85.077950 231.883408,84.877251 
	C233.006973,84.833344 234.165710,85.689072 235.308243,86.130493 
	C234.640656,87.090073 233.973083,88.049660 232.947968,89.096268 
z"/>
<path fill="#FDE7DE" opacity="1.000000" stroke="none" 
	d="
M161.102997,249.994263 
	C148.203445,232.351517 144.789246,212.461594 147.368805,191.230103 
	C149.573868,173.080917 155.543793,156.616989 169.406128,143.858017 
	C169.773346,143.520035 170.109238,143.148071 170.476044,142.809631 
	C177.417633,136.404739 177.265503,136.743149 185.678299,140.544479 
	C219.681641,155.908997 253.516891,156.954361 286.847809,138.477997 
	C289.420074,137.052109 291.134247,137.105240 293.525726,138.843597 
	C313.139465,153.100616 322.096649,173.085892 323.984802,196.499527 
	C326.165527,223.540863 317.467407,246.611603 296.152588,264.942200 
	C294.480286,264.832642 293.693726,264.684052 293.116089,264.244629 
	C317.393158,243.101837 324.920990,216.687637 319.180420,186.019470 
	C315.906921,168.531448 307.563171,153.871002 293.151581,143.091019 
	C291.801208,142.080948 288.971466,141.605453 287.565521,142.323883 
	C252.176010,160.408325 216.889511,159.634995 181.485458,142.382965 
	C180.021820,141.669739 176.957108,141.947250 175.933411,143.010345 
	C170.550293,148.600449 164.116074,153.851334 160.725372,160.571472 
	C145.459457,190.827576 144.959625,220.921967 164.043701,249.958679 
	C162.783478,249.979385 161.943237,249.986816 161.102997,249.994263 
z"/>
<path fill="#FDE7DE" opacity="1.000000" stroke="none" 
	d="
M278.395020,277.673492 
	C246.030609,293.208771 214.522644,291.942535 183.952423,272.810181 
	C181.986359,271.579712 180.202637,270.057892 178.279541,268.060486 
	C178.656876,266.869171 179.088776,266.288971 179.822647,265.823486 
	C192.183594,275.444794 205.841278,281.310974 221.121445,284.013977 
	C221.845490,284.157410 222.400253,284.154907 223.379578,284.116333 
	C226.863174,284.370026 229.922226,284.659760 233.287094,285.137085 
	C235.404312,285.189636 237.215698,285.054626 239.432739,284.814209 
	C242.579468,284.536163 245.320541,284.363556 248.259521,284.284058 
	C248.982498,284.218048 249.507568,284.058838 250.397324,283.753479 
	C259.301758,280.951965 267.841492,278.296631 276.734161,275.962494 
	C277.523041,276.746948 277.959045,277.210236 278.395020,277.673492 
z"/>
<path fill="#FDE7DE" opacity="1.000000" stroke="none" 
	d="
M293.006744,268.017914 
	C289.246460,270.675079 285.486206,273.332245 281.323792,275.597900 
	C280.838928,274.570404 280.756195,273.934418 280.900940,273.069641 
	C285.060425,270.064148 288.992432,267.287415 292.943115,264.948853 
	C292.976776,266.264008 292.991760,267.140961 293.006744,268.017914 
z"/>
<path fill="#FDE7DE" opacity="1.000000" stroke="none" 
	d="
M175.129990,265.656372 
	C173.104965,263.764557 171.079941,261.872711 169.180832,259.448853 
	C169.947510,258.582886 170.588287,258.248993 171.514771,258.073517 
	C173.875061,260.294678 175.949631,262.357391 177.301254,264.730591 
	C176.095535,265.246185 175.612762,265.451294 175.129990,265.656372 
z"/>
<path fill="#FDE7DE" opacity="1.000000" stroke="none" 
	d="
M164.938248,255.024124 
	C164.280151,254.252533 163.622055,253.480942 163.148590,252.064606 
	C163.701187,250.921844 164.069138,250.423813 164.721176,250.139374 
	C166.136932,251.857315 167.268600,253.361679 167.968048,254.896423 
	C166.669968,254.959229 165.804108,254.991669 164.938248,255.024124 
z"/>
<path fill="#FCE1D7" opacity="1.000000" stroke="none" 
	d="
M165.050705,255.332581 
	C165.804108,254.991669 166.669968,254.959229 168.237030,255.032501 
	C169.701843,256.063843 170.465439,256.989441 171.229050,257.915070 
	C170.588287,258.248993 169.947510,258.582886 169.036346,259.159882 
	C167.565018,258.148987 166.364090,256.895020 165.050705,255.332581 
z"/>
<path fill="#FCE1D7" opacity="1.000000" stroke="none" 
	d="
M280.673462,273.298431 
	C280.756195,273.934418 280.838928,274.570404 280.982483,275.683533 
	C280.363312,276.620117 279.683380,277.079559 278.699219,277.606232 
	C277.959045,277.210236 277.523041,276.746948 276.979248,275.706909 
	C278.138794,274.519562 279.406128,273.908997 280.673462,273.298431 
z"/>
<path fill="#FCE1D7" opacity="1.000000" stroke="none" 
	d="
M293.308044,267.904327 
	C292.991760,267.140961 292.976776,266.264008 292.996094,265.000336 
	C293.030396,264.613617 292.907166,264.535492 292.907166,264.535492 
	C293.693726,264.684052 294.480286,264.832642 295.860291,265.075439 
	C295.505585,266.043335 294.557495,266.917053 293.308044,267.904327 
z"/>
<path fill="#FCE1D7" opacity="1.000000" stroke="none" 
	d="
M175.301804,265.922272 
	C175.612762,265.451294 176.095535,265.246185 177.541626,264.819153 
	C178.843521,264.967682 179.182083,265.338226 179.520660,265.708740 
	C179.088776,266.288971 178.656876,266.869171 178.086746,267.786194 
	C177.123535,267.478058 176.298584,266.833099 175.301804,265.922272 
z"/>
<path fill="#FCE1D7" opacity="1.000000" stroke="none" 
	d="
M164.437073,249.925781 
	C164.069138,250.423813 163.701187,250.921844 163.037231,251.777893 
	C162.244400,251.600830 161.747559,251.065765 161.176849,250.262482 
	C161.943237,249.986816 162.783478,249.979385 163.993790,250.008041 
	C164.363861,250.044128 164.437073,249.925766 164.437073,249.925781 
z"/>
<path fill="#EF5F28" opacity="1.000000" stroke="none" 
	d="
M164.721161,250.139359 
	C164.437073,249.925766 164.363861,250.044128 164.413757,249.994751 
	C144.959625,220.921967 145.459457,190.827576 160.725372,160.571472 
	C164.116074,153.851334 170.550293,148.600449 175.933411,143.010345 
	C176.957108,141.947250 180.021820,141.669739 181.485458,142.382965 
	C216.889511,159.634995 252.176010,160.408325 287.565521,142.323883 
	C288.971466,141.605453 291.801208,142.080948 293.151581,143.091019 
	C307.563171,153.871002 315.906921,168.531448 319.180420,186.019470 
	C324.920990,216.687637 317.393158,243.101837 293.116089,264.244629 
	C292.907166,264.535492 293.030396,264.613617 292.977417,264.562134 
	C288.992432,267.287415 285.060425,270.064148 280.900940,273.069641 
	C279.406128,273.908997 278.138794,274.519562 276.626343,275.385681 
	C267.841492,278.296631 259.301758,280.951965 250.200958,283.673889 
	C249.113831,283.890656 248.587738,284.040771 248.061630,284.190918 
	C245.320541,284.363556 242.579468,284.536163 239.108170,284.714783 
	C236.579056,284.797058 234.780167,284.873291 232.981262,284.949524 
	C229.922226,284.659760 226.863174,284.370026 223.210785,283.984161 
	C222.062347,283.881409 221.507248,283.874756 220.952148,283.868103 
	C205.841278,281.310974 192.183594,275.444794 179.822647,265.823486 
	C179.182083,265.338226 178.843521,264.967682 178.264572,264.508636 
	C175.949631,262.357391 173.875061,260.294678 171.514771,258.073517 
	C170.465439,256.989441 169.701843,256.063843 168.669250,255.002136 
	C167.268600,253.361679 166.136932,251.857315 164.721161,250.139359 
M216.541183,259.029358 
	C228.334106,266.264771 241.038651,265.118408 251.074020,256.042297 
	C258.422058,249.396667 263.227875,241.115738 266.843597,232.049911 
	C267.792145,229.671616 268.487732,227.192429 269.639954,223.739166 
	C245.353882,229.230530 221.994827,232.353012 197.705032,226.100006 
	C201.097076,239.342484 205.822861,250.487122 216.541183,259.029358 
M286.966522,209.304123 
	C290.901855,202.307831 291.236359,195.031860 288.114075,187.747955 
	C286.284912,183.480713 283.307404,180.009644 278.158813,179.846451 
	C272.732147,179.674454 269.617188,183.244232 267.595886,187.617493 
	C264.668640,193.950806 264.652557,200.547348 267.480591,206.952133 
	C272.050171,217.301071 281.981140,217.193024 286.966522,209.304123 
M207.272873,195.816467 
	C206.382477,192.648712 206.038696,189.182114 204.500504,186.368500 
	C199.639328,177.476669 190.245789,177.490479 185.451752,186.382797 
	C181.376923,193.941055 181.561447,201.809235 185.879791,209.214447 
	C190.398392,216.963089 199.502090,217.171356 203.887146,209.369492 
	C205.978851,205.647919 206.247986,200.901993 207.272873,195.816467 
z"/>
<path fill="#FCE1D7" opacity="1.000000" stroke="none" 
	d="
M233.287094,285.137085 
	C234.780167,284.873291 236.579056,284.797058 238.702515,284.820190 
	C237.215698,285.054626 235.404312,285.189636 233.287094,285.137085 
z"/>
<path fill="#FCE1D7" opacity="1.000000" stroke="none" 
	d="
M248.259521,284.284058 
	C248.587738,284.040771 249.113831,283.890656 249.836304,283.820068 
	C249.507568,284.058838 248.982498,284.218048 248.259521,284.284058 
z"/>
<path fill="#FCE1D7" opacity="1.000000" stroke="none" 
	d="
M221.121445,284.013977 
	C221.507248,283.874756 222.062347,283.881409 222.786224,284.020233 
	C222.400253,284.154907 221.845490,284.157410 221.121445,284.013977 
z"/>
<path fill="#FEFAF9" opacity="1.000000" stroke="none" 
	d="
M216.246414,258.820160 
	C205.822861,250.487122 201.097076,239.342484 197.705032,226.100006 
	C221.994827,232.353012 245.353882,229.230530 269.639954,223.739166 
	C268.487732,227.192429 267.792145,229.671616 266.843597,232.049911 
	C263.227875,241.115738 258.422058,249.396667 251.074020,256.042297 
	C241.038651,265.118408 228.334106,266.264771 216.246414,258.820160 
z"/>
<path fill="#FFFAF9" opacity="1.000000" stroke="none" 
	d="
M286.762451,209.619080 
	C281.981140,217.193024 272.050171,217.301071 267.480591,206.952133 
	C264.652557,200.547348 264.668640,193.950806 267.595886,187.617493 
	C269.617188,183.244232 272.732147,179.674454 278.158813,179.846451 
	C283.307404,180.009644 286.284912,183.480713 288.114075,187.747955 
	C291.236359,195.031860 290.901855,202.307831 286.762451,209.619080 
z"/>
<path fill="#FFFAF8" opacity="1.000000" stroke="none" 
	d="
M207.307770,196.218262 
	C206.247986,200.901993 205.978851,205.647919 203.887146,209.369492 
	C199.502090,217.171356 190.398392,216.963089 185.879791,209.214447 
	C181.561447,201.809235 181.376923,193.941055 185.451752,186.382797 
	C190.245789,177.490479 199.639328,177.476669 204.500504,186.368500 
	C206.038696,189.182114 206.382477,192.648712 207.307770,196.218262 
z"/>
</svg>