<svg width="65" height="65" viewBox="0 0 65 65" fill="none" xmlns="http://www.w3.org/2000/svg">
<path d="M0.324997 32.8C0.324997 15.1269 14.6519 0.800049 32.325 0.800049C49.9981 0.800049 64.325 15.1269 64.325 32.8C64.325 50.4732 49.9981 64.8 32.325 64.8C14.6519 64.8 0.324997 50.4732 0.324997 32.8Z" fill="#FAFAFA"/>
<path d="M39.7863 33.824C40.2865 34.3242 40.965 34.6052 41.6723 34.6052C42.3797 34.6052 43.0581 34.3242 43.5583 33.824C44.0585 33.3238 44.3396 32.6454 44.3396 31.938C44.3396 31.2306 44.0585 30.5522 43.5583 30.052L41.201 27.696C41.7012 28.196 42.3796 28.4769 43.0868 28.4768C43.437 28.4767 43.7838 28.4077 44.1073 28.2736C44.4308 28.1395 44.7248 27.943 44.9723 27.6954C45.2199 27.4477 45.4163 27.1537 45.5503 26.8301C45.6842 26.5065 45.7531 26.1597 45.7531 25.8095C45.753 25.4593 45.684 25.1126 45.5499 24.7891C45.4158 24.4655 45.2194 24.1716 44.9717 23.924L41.201 20.1534C40.701 19.6532 40.0227 19.3721 39.3155 19.3719C38.6082 19.3718 37.9299 19.6527 37.4297 20.1527C36.9295 20.6527 36.6484 21.331 36.6483 22.0382C36.6482 22.7455 36.929 23.4238 37.429 23.924L35.073 21.5667C34.8253 21.319 34.5313 21.1225 34.2077 20.9885C33.8841 20.8545 33.5373 20.7855 33.187 20.7855C32.8367 20.7855 32.4899 20.8545 32.1663 20.9885C31.8427 21.1225 31.5487 21.319 31.301 21.5667C31.0533 21.8144 30.8569 22.1084 30.7228 22.432C30.5888 22.7556 30.5198 23.1024 30.5198 23.4527C30.5198 23.8029 30.5888 24.1498 30.7228 24.4734C30.8569 24.797 31.0533 25.091 31.301 25.3387L39.7863 33.824Z" stroke="#171717" stroke-width="2.66667" stroke-linecap="round" stroke-linejoin="round"/>
<path d="M19.6583 45.4668L21.525 43.6001" stroke="#171717" stroke-width="2.66667" stroke-linecap="round" stroke-linejoin="round"/>
<path d="M43.125 22.0001L44.9917 20.1334" stroke="#171717" stroke-width="2.66667" stroke-linecap="round" stroke-linejoin="round"/>
<path d="M23.449 45.4467C23.949 45.9469 24.6273 46.228 25.3345 46.2281C25.6847 46.2282 26.0315 46.1593 26.3551 46.0253C26.6787 45.8914 26.9727 45.695 27.2203 45.4474C27.468 45.1998 27.6645 44.9059 27.7986 44.5824C27.9326 44.2588 28.0017 43.9121 28.0017 43.5619C28.0018 43.2117 27.9329 42.8649 27.7989 42.5413C27.665 42.2178 27.4686 41.9238 27.221 41.6761L29.577 44.0334C30.0772 44.5336 30.7556 44.8146 31.463 44.8146C32.1704 44.8146 32.8488 44.5336 33.349 44.0334C33.8492 43.5332 34.1302 42.8548 34.1302 42.1474C34.1302 41.44 33.8492 40.7616 33.349 40.2614L24.8637 31.7761C24.616 31.5284 24.322 31.3319 23.9984 31.1979C23.6748 31.0639 23.3279 30.9949 22.9777 30.9949C22.6274 30.9949 22.2806 31.0639 21.957 31.1979C21.6334 31.3319 21.3394 31.5284 21.0917 31.7761C20.844 32.0238 20.6475 32.3178 20.5135 32.6414C20.3795 32.965 20.3105 33.3118 20.3105 33.6621C20.3105 34.0123 20.3795 34.3592 20.5135 34.6828C20.6475 35.0064 20.844 35.3004 21.0917 35.5481L23.449 37.9041C22.9488 37.4041 22.2705 37.1232 21.5632 37.1233C20.8559 37.1235 20.1777 37.4045 19.6777 37.9047C19.1777 38.4049 18.8968 39.0833 18.8969 39.7905C18.8971 40.4978 19.1781 41.1761 19.6783 41.6761L23.449 45.4467Z" stroke="#171717" stroke-width="2.66667" stroke-linecap="round" stroke-linejoin="round"/>
<path d="M29.125 36.0001L35.525 29.6001" stroke="#171717" stroke-width="2.66667" stroke-linecap="round" stroke-linejoin="round"/>
</svg>
